# xmcd
#
# Track frame offsets:
#	150
#	19117
#	35534
#	54678
#	69152
#	84867
#	104086
#	126090
#	150232
#	166024
#	184654
#	205402
#
# Disc length: 2963 seconds
#
# Revision: 0
# Processed by: cddbd v1.5.2PL0 Copyright (c) Steve Scherf et al.
# Submitted via: EasyCDDAExtractor 5.0.5.1
#
DISCID=920b910c
DTITLE=Maria Muldaur - sings Love Songs of Bob Dylan
DYEAR=2006
DGENRE=Blues
TTITLE0=Buckets Of Rain
TTITLE1=Lay Baby Lay (Lay Lady Lay)
TTITLE2=To Be Alone With You
TTITLE3=Heart Of Mine
TTITLE4=Make You Feel My Love
TTITLE5=Moonlight
TTITLE6=You're Gonna Make Me Lonesome When You Go
TTITLE7=Golden Loom
TTITLE8=On A Night Like This
TTITLE9=I'll Be Your Baby Tonight
TTITLE10=Wedding Song
TTITLE11=You Ain't Goin' Nowhere
EXTD=
EXTT0=
EXTT1=
EXTT2=
EXTT3=
EXTT4=
EXTT5=
EXTT6=
EXTT7=
EXTT8=
EXTT9=
EXTT10=
EXTT11=
PLAYORDER=
